<svg data-v-0dd9719b="" version="1.0" xmlns="http://www.w3.org/2000/svg" xmlns:xlink="http://www.w3.org/1999/xlink" width="100%" height="100%" viewBox="0 0 340.000000 250.000000" preserveAspectRatio="xMidYMid meet" color-interpolation-filters="sRGB" style="margin: auto;"> <rect data-v-0dd9719b="" x="0" y="0" width="100%" height="100%" fill="#FFFFFF" fill-opacity="1" class="background"></rect> <rect data-v-0dd9719b="" x="0" y="0" width="100%" height="100%" fill="url(#watermark)" fill-opacity="1" class="watermarklayer"></rect> <g data-v-0dd9719b="" fill="#300000" class="icon-text-wrapper icon-svg-group iconsvg" transform="translate(74.19999694824219,94.98348999023438)"><g class="iconsvg-imagesvg" transform="translate(0,0)"><g><rect fill="#300000" fill-opacity="0" stroke-width="2" x="0" y="0" width="60" height="60.033018159987996" class="image-rect"></rect> <svg x="0" y="0" width="60" height="60.033018159987996" filtersec="colorsb4202135965" class="image-svg-svg primary" style="overflow: visible;"><svg xmlns="http://www.w3.org/2000/svg" viewBox="0 -0.000057221815950470045 119.93415069580078 120.00004577636719"><defs><clipPath id="abc6873ee-894b-4989-8f83-475b2925b8c1" transform="translate(-.33 -.33)"><path fill="none" d="M0 0h120.59v120.59H0z"></path></clipPath></defs><g><g clip-path="url(#abc6873ee-894b-4989-8f83-475b2925b8c1)"><path d="M100.47 49.6c-14.41 7.97-21.46 38.95-46.8 46.37 0 0 16.09-10.87 15.86-17 0 0-35.23 30.68-67.37-9 0 0 48.26 36.16 84-22.32 2.28-3.73 7-9 16.6-5.58a11.89 11.89 0 0 0 8.08-.52c3.47-1.37 1.54 1.47-10.37 8.05zM59.89 0a59.82 59.82 0 0 0-39 14.39c5.93 13.41 18.9 33.38 44.07 33.28 0 0-34 2.92-49.9-27.49a61.85 61.85 0 0 0-4.52 5.68C17.8 38.54 34.44 57.29 68.37 53c0 0-31.36 17.26-64.15-15.4a57.32 57.32 0 0 0-2.44 7.55c10.25 9.26 36.82 27.91 72.64 13.26 0 0-32 33.93-74.42 4.4A60 60 0 1 0 59.89 0z" fill="#ea3637"></path></g></g></svg></svg> <!----></g></g> <g transform="translate(67,15.006509780883789)"><g data-gra="path-name" fill-rule="" class="tp-name iconsvg-namesvg"><g transform="scale(1)"><g><path d="M9.45 0L3.06 0 3.06-30.02 9.45-30.02 9.45 0ZM29.16-5.35L38.34-5.35 38.34 0 27.85 0Q24.88 0 23.31-0.32L23.31-0.32Q17.77-1.4 15.43-6.48L15.43-6.48Q13.9-9.9 13.9-14.94L13.9-14.94Q13.9-20.97 16.25-24.75L16.25-24.75Q17.95-27.49 20.81-28.75 23.67-30.02 28.17-30.02L28.17-30.02 38.34-30.02 38.34-24.66 28.89-24.66Q24.62-24.66 22.63-22.36L22.63-22.36Q20.97-20.47 20.97-15.52L20.97-15.52Q20.97-8.87 23.54-6.79L23.54-6.79Q25.34-5.35 29.16-5.35L29.16-5.35ZM56.43-5.35L65.61-5.35 65.61 0 55.13 0Q52.16 0 50.58-0.32L50.58-0.32Q45.05-1.4 42.7-6.48L42.7-6.48Q41.17-9.9 41.17-14.94L41.17-14.94Q41.17-20.97 43.52-24.75L43.52-24.75Q45.23-27.49 48.08-28.75 50.94-30.02 55.44-30.02L55.44-30.02 65.61-30.02 65.61-24.66 56.16-24.66Q51.88-24.66 49.91-22.36L49.91-22.36Q48.24-20.47 48.24-15.52L48.24-15.52Q48.24-8.87 50.8-6.79L50.8-6.79Q52.6-5.35 56.43-5.35L56.43-5.35ZM86.72-10.48L76.45-10.48 76.45 0 70.06 0 70.06-30.02 85.05-30.02Q89.14-30.02 90.9-29.43L90.9-29.43Q93.87-28.44 95.58-25.33L95.58-25.33Q96.84-22.99 96.84-20.25L96.84-20.25Q96.84-17.95 96.01-15.91 95.17-13.86 93.69-12.55L93.69-12.55Q92.34-11.38 90.83-10.93 89.32-10.48 86.72-10.48L86.72-10.48ZM76.45-24.66L76.45-15.84 85.14-15.84Q87.48-15.84 88.42-16.56L88.42-16.56Q89.82-17.68 89.82-20.47L89.82-20.47Q89.82-23.49 87.7-24.34L87.7-24.34Q86.94-24.66 85.27-24.66L85.27-24.66 76.45-24.66ZM117.54-10.48L107.28-10.48 107.28 0 100.89 0 100.89-30.02 115.88-30.02Q119.97-30.02 121.72-29.43L121.72-29.43Q124.69-28.44 126.41-25.33L126.41-25.33Q127.66-22.99 127.66-20.25L127.66-20.25Q127.66-17.95 126.83-15.91 126-13.86 124.52-12.55L124.52-12.55Q123.16-11.38 121.66-10.93 120.15-10.48 117.54-10.48L117.54-10.48ZM107.28-24.66L107.28-15.84 115.97-15.84Q118.3-15.84 119.25-16.56L119.25-16.56Q120.64-17.68 120.64-20.47L120.64-20.47Q120.64-23.49 118.53-24.34L118.53-24.34Q117.77-24.66 116.1-24.66L116.1-24.66 107.28-24.66Z" transform="translate(-3.059999942779541, 30.020000457763672)"></path></g> <!----> <!----> <!----> <!----> <!----> <!----> <!----></g></g> <!----></g></g><defs v-gra="od"></defs></svg>